<?xml version="1.0" encoding="UTF-8" standalone="no"?>
<!-- Created with Inkscape (http://www.inkscape.org/) -->

<svg
   version="1.1"
   id="svg1"
   width="568"
   height="401.33334"
   viewBox="0 0 568 401.33334"
   sodipodi:docname="NameDifferentColor.svg"
   inkscape:version="1.4 (86a8ad7, 2024-10-11)"
   xmlns:inkscape="http://www.inkscape.org/namespaces/inkscape"
   xmlns:sodipodi="http://sodipodi.sourceforge.net/DTD/sodipodi-0.dtd"
   xmlns="http://www.w3.org/2000/svg"
   xmlns:svg="http://www.w3.org/2000/svg">
  <defs
     id="defs1" />
  <sodipodi:namedview
     id="namedview1"
     pagecolor="#ffffff"
     bordercolor="#000000"
     borderopacity="0.25"
     inkscape:showpageshadow="2"
     inkscape:pageopacity="0.0"
     inkscape:pagecheckerboard="0"
     inkscape:deskcolor="#d1d1d1"
     showgrid="false"
     inkscape:zoom="1.0128737"
     inkscape:cx="459.08982"
     inkscape:cy="98.235348"
     inkscape:window-width="1920"
     inkscape:window-height="1094"
     inkscape:window-x="-11"
     inkscape:window-y="-11"
     inkscape:window-maximized="1"
     inkscape:current-layer="g1" />
  <g
     inkscape:groupmode="layer"
     inkscape:label="Image"
     id="g1">
    <path
       style="fill:#ffffff"
       d="m 207.64508,226.37911 c -0.24107,-0.39005 -0.24896,-3.01505 -0.0175,-5.83333 0.23142,-2.81828 0.16598,-6.02415 -0.14542,-7.12415 -0.49875,-1.76178 -0.89838,-2.02441 -3.35515,-2.20499 -2.21444,-0.16277 -2.78896,-0.46366 -2.78896,-1.46066 0,-2.01906 1.23807,-2.33435 9.16664,-2.33435 h 7.49996 l 4e-5,1.90336 c 3e-5,1.82137 -0.11587,1.89231 -2.69077,1.64675 -3.19974,-0.30515 -3.17815,-0.35919 -3.45327,8.6413 -0.14135,4.62402 -0.44242,6.35132 -1.18926,6.82312 -1.32465,0.83681 -2.48739,0.8149 -3.02628,-0.0571 z m 18.52638,-0.3157 c -1.95777,-1.37128 -3.5001,-6.84158 -3.5001,-12.41407 0,-4.07503 0.16454,-4.63811 1.63735,-5.60313 2.60951,-1.70982 3.23789,-0.70238 2.8596,4.58465 -0.18474,2.58198 -0.0929,5.54185 0.20414,6.57749 1.71574,5.98243 7.97768,4.71816 8.84967,-1.78672 1.14415,-8.53514 1.76397,-10.33333 3.56182,-10.33333 0.92593,0 1.0241,0.86344 0.74863,6.58407 -0.35433,7.35838 -1.72638,10.62247 -5.2258,12.43209 -2.47672,1.28076 -7.27896,1.25918 -9.13531,-0.041 z m 79.16656,-2.64811 c 0,-3.10378 -0.47994,-4.56065 -3.09693,-9.40074 -2.49673,-4.61767 -2.91665,-5.84191 -2.16667,-6.3168 1.87218,-1.18546 3.18752,-0.56621 4.72367,2.22387 2.37587,4.31524 4.13808,4.09319 7.93621,-1 1.28626,-1.72485 3.93706,-2.55238 3.93706,-1.22908 0,0.33233 -1.50885,2.83766 -3.35299,5.56739 -2.65707,3.93303 -3.4347,5.71018 -3.74668,8.56242 -0.38297,3.5013 -1.50929,5.26594 -3.36109,5.26594 -0.61341,0 -0.87258,-1.09093 -0.87258,-3.673 z m -58.00579,-2.827 c -0.003,-3.20833 -0.19115,-7.37607 -0.4177,-9.26163 -0.37003,-3.0797 -0.27032,-3.47324 0.98061,-3.87027 2.20353,-0.69937 3.6653,0.54868 5.74915,4.9086 1.29529,2.71006 2.33126,4.05663 3.12091,4.05663 0.65963,0 2.8442,-2.05725 4.94308,-4.65498 3.34389,-4.13868 3.91161,-4.57441 5.11846,-3.92852 1.22771,0.65705 1.31744,1.1496 0.93908,5.15498 -0.23007,2.43569 -0.42045,6.45352 -0.42306,8.92852 -0.005,4.3543 -0.0587,4.5 -1.6714,4.5 -1.2623,0 -1.6844,-0.36393 -1.73975,-1.5 -0.14012,-2.87567 -0.5207,-5.51265 -1.0581,-7.33119 l -0.54113,-1.8312 -2.33648,3.15655 c -3.20733,4.33304 -4.18997,4.34844 -6.822,0.10698 l -2.16921,-3.49566 -0.19363,5.44726 c -0.18802,5.2896 -0.24109,5.44726 -1.83333,5.44726 -1.61646,0 -1.63979,-0.0827 -1.6455,-5.83333 z m 26.15335,-3.28721 0.18578,-9.21279 h 2 c 1.64309,0 2.3758,0.56231 4.10589,3.15103 1.15825,1.73306 2.22152,3.49787 2.36283,3.9218 0.43764,1.31292 2.77241,0.0312 4.53128,-2.48748 2.73957,-3.92309 3.99897,-5.01249 5.54099,-4.79301 1.41859,0.20191 1.45901,0.45696 1.45901,9.20766 v 9 l -1.89765,0.21716 c -1.85219,0.21195 -1.89287,0.14806 -1.6978,-2.66667 0.20007,-2.88685 -0.52402,-7.21716 -1.20681,-7.21716 -0.19964,0 -1.5513,1.35 -3.00369,3 -1.45238,1.65 -2.9276,3 -3.27825,3 -0.35065,0 -1.60015,-1.55278 -2.77667,-3.45063 l -2.13913,-3.45063 -0.33334,5.28397 c -0.32731,5.18861 -0.36676,5.2878 -2.18578,5.49675 l -1.85244,0.2128 z m 56.07018,0.23507 c 0.15817,-4.93943 0.49159,-9.31087 0.74093,-9.71432 0.62104,-1.00486 3.01953,-0.9285 3.13452,0.0998 0.0513,0.45834 0.0297,1.91532 -0.048,3.23775 -0.19005,3.23731 1.27439,4.59559 4.95479,4.59559 3.50554,0 5,-1.27856 5,-4.27763 0,-2.43296 2.23546,-5.08691 3.34782,-3.97456 0.40757,0.40758 0.46381,3.99124 0.15091,9.61758 l -0.49873,8.96794 -1.83333,0.21095 c -1.7209,0.19801 -1.83333,0.0525 -1.83333,-2.37258 0,-4.02599 -1.05572,-4.95511 -5.35358,-4.71162 l -3.64642,0.20658 -0.33334,3.33334 c -0.30608,3.06087 -0.48604,3.35085 -2.20159,3.54765 l -1.86826,0.21432 z m 23.35172,7.36876 c 0.79818,-3.1802 7.89524,-17.24221 8.8959,-17.6262 1.93259,-0.7416 3.06029,0.83054 6.34376,8.84393 3.96584,9.67873 4.00623,9.90974 1.77791,10.1682 -1.39716,0.16205 -2.02704,-0.27325 -3.15037,-2.17715 -1.33969,-2.2706 -1.5347,-2.36201 -4.25369,-1.9939 -5.06082,0.68516 -5.60891,0.9099 -6.38771,2.61918 -1.02768,2.25552 -3.78586,2.3974 -3.2258,0.16594 z m 11.00145,-6.40999 c 0.74692,-0.47328 0.69713,-1.0094 -0.28619,-3.0816 l -1.19043,-2.50863 -1.21381,1.49899 c -0.6676,0.82444 -1.21381,2.04075 -1.21381,2.70291 0,1.72101 2.16449,2.49069 3.90424,1.38833 z m 16.96532,6.66231 c -4.38081,-2.75258 -5.8324,-7.56806 -3.60027,-11.9434 2.14178,-4.19824 5.12407,-6.12554 9.47863,-6.12554 3.38096,0 6.58541,1.26392 6.58541,2.59746 0,1.07742 -3.37332,2.09472 -4.66093,1.40561 -6.20605,-3.32138 -11.6738,4.43143 -6.6608,9.44443 1.87104,1.87104 2.29745,1.99556 6.10233,1.78205 4.57579,-0.25677 5.3996,0.45251 2.76207,2.37806 -2.58748,1.88899 -7.38245,2.11006 -10.00644,0.46133 z m 28.24104,-2.44037 c -3.76981,-4.2292 -5.3118,-4.1404 -6.0294,0.34721 -0.36893,2.30714 -0.66685,2.69089 -2.08908,2.69089 h -1.65879 v -8.23001 c 0,-7.2941 0.14685,-8.3629 1.29133,-9.39864 1.82308,-1.64987 2.70867,-0.77074 2.70867,2.68892 0,4.25537 1.44809,4.56366 4.81503,1.0251 2.94602,-3.09619 6.18104,-5.03917 7.26978,-4.36629 0.42228,0.26098 -0.71978,1.89034 -2.8049,4.00168 -3.25096,3.29185 -3.45889,3.68947 -2.74674,5.25247 0.42377,0.93006 2.02582,3.0529 3.56013,4.71743 2.79909,3.03665 2.84034,3.81397 0.24004,4.52309 -1.00566,0.27425 -2.12536,-0.52493 -4.55607,-3.25185 z m -229.6106,-5.4599 c -7.91637,-0.20328 -9.12395,-0.54427 -7.29703,-2.06047 1.2406,-1.02961 19.03143,-1.14401 20.03154,-0.12881 0.987,1.00189 -1.21124,2.75149 -3.19526,2.54313 -0.75492,-0.0793 -5.04758,-0.23852 -9.53925,-0.35385 z m 243.83333,-0.78253 c 0,-1.53691 3.66608,-2.17637 10.33334,-1.8024 3.66666,0.20567 7.55166,0.38346 8.63333,0.3951 1.18465,0.0127 1.71483,0.25827 1.33333,0.61746 -1.00774,0.94882 -20.3,1.69945 -20.3,0.78984 z M 248.67136,195.73847 c 0,-2.26679 0.26537,-2.78407 1.71006,-3.33334 2.19583,-0.83485 3.62327,-0.82835 3.62327,0.0165 0,0.36667 -0.58229,0.66667 -1.29399,0.66667 -0.71169,0 -1.4794,0.3 -1.70601,0.66667 -0.22661,0.36666 0.20568,0.66666 0.96066,0.66666 0.75497,0 1.37267,0.3 1.37267,0.66667 0,0.36667 -0.44745,0.66667 -0.99435,0.66667 -0.54689,0 -1.36905,0.6 -1.82703,1.33333 -1.26821,2.03072 -1.84528,1.60859 -1.84528,-1.34983 z m 11.46666,1.88316 c -1.16015,-1.16015 -0.98086,-3.24905 0.36667,-4.27197 3.49463,-2.6528 7.49721,1.05788 4.28084,3.96865 -1.43221,1.29613 -3.51854,1.43229 -4.64751,0.30332 z m 3.53334,-2.53333 c 0,-1.44582 -2.60091,-1.24665 -2.88352,0.22081 -0.18232,0.94671 0.115,1.17123 1.32421,1 0.85762,-0.12145 1.55931,-0.67081 1.55931,-1.22081 z m 8.76999,2.11417 c -2.45334,-2.71091 -0.29051,-5.8199 2.87149,-4.12765 1.74321,0.93294 1.78478,3.73844 0.069,4.65669 -1.67071,0.89414 -1.64901,0.89804 -2.9405,-0.52904 z m 2.23001,-2.48685 c 0,-0.52836 -0.45,-0.96065 -1,-0.96065 -1.00416,0 -1.37045,1.40732 -0.57368,2.2041 0.62216,0.62216 1.57368,-0.12968 1.57368,-1.24345 z m 36.65629,1.36018 c -0.6867,-0.82742 -0.62924,-1.24574 0.31434,-2.28838 0.63505,-0.70173 1.57645,-1.114 2.092,-0.91617 1.27595,0.48963 1.18924,3.31108 -0.11716,3.81239 -1.3941,0.53497 -1.32565,0.55315 -2.28918,-0.60784 z m 41.90844,-1.27832 c -0.92896,-2.03884 -0.3288,-3.70918 1.33271,-3.70918 2.05571,0 3.10146,1.74054 2.21486,3.68641 -0.95714,2.10071 -2.59601,2.11123 -3.54757,0.0228 z m -132.56473,0.33575 c 0,-1.08537 2.13795,-1.31599 9.66666,-1.04278 4.03334,0.14637 7.87604,0.28076 8.53935,0.29865 0.6633,0.0179 1.0206,0.33253 0.79399,0.6992 -0.52922,0.85629 -19,0.89997 -19,0.0449 z M 376.89,193.79359 c -0.85102,-2.25462 -0.5952,-2.70529 1.53568,-2.70529 1.88642,0 3.05631,1.90849 2.15602,3.51722 -1.00099,1.78866 -2.86481,1.37875 -3.6917,-0.81193 z m -185.38531,0.85319 c -1.58057,-0.63777 -0.82565,-2.14415 1.8196,-3.63086 3.27426,-1.84024 3.92277,-3.61983 4.62559,-12.69306 0.66935,-8.64122 0.51795,-9.23457 -2.35628,-9.23457 -3.482,0 -3.05599,-2.16025 0.7935,-4.02376 l 3.04908,-1.47603 -0.42148,-5.08344 c -0.23182,-2.79588 -0.76134,-6.51125 -1.17672,-8.25636 l -0.75523,-3.17293 -2.37237,0.4329 c -1.30479,0.2381 -3.12236,0.7109 -4.03902,1.05068 -3.31441,1.22852 -6.66667,5.5208 -6.66667,8.53609 0,1.21783 0.33562,1.37889 2.5,1.19976 2.20023,-0.18209 2.58996,-0.48669 3.25025,-2.54023 0.97041,-3.01804 3.32329,-3.60054 3.97969,-0.98525 0.56225,2.24017 -1.2117,4.75993 -4.79262,6.8076 -3.63191,2.07683 -6.32832,1.94814 -8.86682,-0.42317 -1.79928,-1.68078 -2.0705,-2.38515 -2.0705,-5.37715 0,-8.28206 5.56982,-12.16132 18.688,-13.01581 12.7354,-0.82956 33.60589,-2.96862 36.312,-3.72169 1.46667,-0.40815 3.462,-1.49185 4.43408,-2.40822 0.97209,-0.91638 2.31864,-1.55998 2.99235,-1.43024 3.40616,0.65597 0.38627,5.95041 -4.73009,8.29276 -4.76783,2.18278 -9.66918,2.9193 -19.45835,2.92397 -6.76453,0.003 -8.16186,0.17722 -8.5,1.05839 -0.22256,0.57999 -0.40466,3.72999 -0.40466,7 v 5.94546 h 2.20382 c 1.30445,0 3.12661,-0.68081 4.46504,-1.66828 1.2931,-0.95401 2.51113,-1.41839 2.8449,-1.08462 0.93255,0.93254 -0.20212,9.9417 -1.37389,10.90853 -0.7159,0.59068 -1.09816,0.62241 -1.27232,0.10558 -0.13693,-0.40634 -0.63819,-1.27109 -1.11391,-1.92167 -0.75852,-1.03734 -1.16569,-1.08363 -3.30929,-0.37618 l -2.44435,0.80671 v 9.48164 c 0,9.82385 0.32227,11.08164 2.83935,11.08164 2.1677,0 0.63072,1.14061 -2.65022,1.96676 -1.74178,0.43859 -5.65039,1.82549 -8.6858,3.082 -5.67918,2.3509 -5.92502,2.41266 -7.33666,1.84305 z m 12.02209,-35.08881 c 0.20392,-0.53139 -0.21747,-0.88996 -1.09534,-0.93205 -0.78471,-0.0376 -1.04988,0.0766 -0.58926,0.25392 0.46061,0.17728 0.66791,0.59671 0.46065,0.93206 -0.20726,0.33535 -0.0912,0.60972 0.25786,0.60972 0.34907,0 0.78382,-0.38864 0.96609,-0.86365 z m 2.29735,0.46088 c -0.22152,-0.22153 -0.79652,-0.24522 -1.27777,-0.0526 -0.53183,0.21282 -0.37385,0.37079 0.40277,0.40278 0.70278,0.029 1.09653,-0.12862 0.875,-0.35014 z m 0.0182,-2.76388 c 0.005,-2.1808 -1.08656,-3.06661 -2.41769,-1.96187 -0.52699,0.43736 -1.11825,0.71195 -1.31391,0.6102 -0.19567,-0.10174 -0.42302,0.27326 -0.50522,0.83334 -0.0822,0.56008 0.124,1.05583 0.45822,1.10166 0.33422,0.0458 0.88268,0.12083 1.21879,0.16667 0.33611,0.0458 0.83611,0.30832 1.11111,0.58332 0.94938,0.94938 1.44446,0.49373 1.4487,-1.33332 z m -0.83603,-2.99422 c 0.30005,0.27182 0.32974,0.11922 0.066,-0.33912 -0.26376,-0.45833 -0.16186,-0.83333 0.22645,-0.83333 0.3883,0 0.70601,-0.33673 0.70601,-0.7483 0,-0.51173 -0.32123,-0.4817 -1.01611,0.095 -0.55886,0.46382 -1.17466,0.68475 -1.36844,0.49097 -0.19378,-0.19378 0.45392,-0.98653 1.43935,-1.76167 0.98542,-0.77513 1.52622,-1.40126 1.20177,-1.3914 -0.32445,0.01 -1.6399,0.91256 -2.92324,2.00599 -1.28333,1.09343 -1.80493,1.80195 -1.1591,1.5745 0.93176,-0.32815 1.07806,-0.15731 0.70851,0.82735 -0.39339,1.04819 -0.3074,1.11238 0.55378,0.41334 0.56072,-0.45515 1.26499,-0.60515 1.56504,-0.33333 z m -0.16823,-4.75506 c 1.00834,-0.73414 1.83334,-1.63838 1.83334,-2.00943 0,-0.41151 -0.29169,-0.38294 -0.74791,0.0733 -0.41134,0.41134 -1.23634,0.59304 -1.83333,0.40377 -0.74648,-0.23666 -0.8335,-0.16119 -0.27869,0.24168 0.59038,0.42869 0.41159,0.83187 -0.66667,1.50332 -1.34583,0.83809 -1.39418,0.82167 -0.55844,-0.18957 0.50323,-0.60891 0.61496,-1.10711 0.2483,-1.10711 -0.36667,0 -1.04014,0.45 -1.4966,1 -0.61846,0.7452 -0.62923,1 -0.0423,1 0.4332,0 0.57358,0.34636 0.31196,0.76968 -0.54208,0.87709 0.34937,0.41192 3.23032,-1.68562 z m -0.83338,-2.54011 c 0.69061,-0.43378 0.38123,-0.49736 -1,-0.20552 -1.1,0.23242 -2.3,0.73508 -2.66667,1.11701 -0.77599,0.8083 2.04515,0.10699 3.66667,-0.91149 z m 77.71162,46.82516 c -5.69872,-3.75662 -4.48083,-10.21301 2.26937,-12.03065 2.40241,-0.64691 3.04625,-0.58296 4.57415,0.45433 l 1.77819,1.20721 -2,0.18281 c -4.37502,0.39988 -5,0.74756 -5,2.78151 0,4.13251 6.00174,6.05074 9.37632,2.99679 1.39579,-1.26318 3.29075,-6.39775 3.28949,-8.9132 -8.3e-4,-1.67323 -0.1101,-1.71461 -4.53155,-1.71604 -4.96554,-0.002 -7.23973,-1.01355 -9.28179,-4.13015 -0.95265,-1.45392 -1.14376,-3.10607 -1.04402,-9.02545 0.10962,-6.50625 -0.0172,-7.38507 -1.24318,-8.611 -0.7509,-0.7509 -1.11027,-1.59697 -0.7986,-1.88016 0.31167,-0.28319 2.74561,-0.70565 5.40875,-0.9388 l 4.84209,-0.42391 -0.50875,2.8388 c -0.27982,1.56134 -0.4933,5.94928 -0.47441,9.75098 0.0297,5.9843 0.20344,7.03584 1.29408,7.83333 1.59661,1.16747 3.07752,1.16919 4.66909,0.005 1.05261,-0.76968 1.36535,-2.39124 1.96076,-10.16666 l 0.70839,-9.25051 3.9184,-0.20248 c 3.55432,-0.18366 3.87233,-0.0907 3.42259,1 -0.27269,0.66136 -0.74,6.52856 -1.03847,13.03824 -0.6888,15.02317 -1.4914,18.01171 -5.90219,21.9774 -4.98868,4.48524 -11.68632,5.861 -15.68871,3.22261 z m 82.28838,0.003 c 0,-1.18449 0.41604,-1.37167 3.04888,-1.37167 2.54356,0 3.01221,0.19337 2.82758,1.16667 -0.16143,0.85104 -0.98627,1.22213 -3.04888,1.37167 -2.4759,0.1795 -2.82758,0.0344 -2.82758,-1.16667 z m 41.73621,-0.73062 c -2.85171,-0.85337 -5.73621,-3.89463 -5.73621,-6.04796 0,-3.83078 5.86674,-7.97351 8.36064,-5.90376 1.51367,1.25624 1.16241,1.87457 -1.19397,2.10177 -1.96642,0.1896 -2.16667,0.41304 -2.16667,2.41758 0,3.06501 2.54729,4.64262 6.0595,3.75281 3.56896,-0.90419 5.15288,-3.38772 5.48477,-8.59994 l 0.27322,-4.29076 -3.56803,1.35575 c -4.86232,1.84753 -7.8586,0.99739 -10.41986,-2.95646 -1.5639,-2.41421 -1.81696,-3.49758 -1.82281,-7.80342 -0.0113,-8.34694 3.64891,-12.42626 10.87826,-12.12375 l 3.62366,0.15164 -0.46893,-4.18061 c -0.3107,-2.76999 -0.91957,-4.663 -1.80449,-5.61027 -0.73456,-0.78632 -1.06608,-1.59622 -0.73671,-1.79978 0.66817,-0.41295 8.99696,-1.83057 9.25266,-1.57487 0.0895,0.0895 0.3306,9.24519 0.53581,20.34601 0.31978,17.29761 0.22556,20.5366 -0.65899,22.65416 -2.72946,6.53412 -9.54263,10.01185 -15.89185,8.11186 z m 8.61161,-18.90254 c 1.11265,-0.81359 1.24897,-1.68831 1.10445,-7.08674 -0.20055,-7.49137 -0.71275,-8.65178 -3.81886,-8.65178 -3.02081,0 -4.96063,2.91373 -4.96425,7.4566 -0.006,7.08339 3.76134,11.14634 7.67866,8.28192 z m -27.01449,18.26149 c 1.32119,-0.85382 9.80565,-0.85382 10.33334,0 0.26294,0.42545 -1.71288,0.66298 -5.46066,0.65646 -4.03789,-0.007 -5.56025,-0.21211 -4.87268,-0.65646 z m -74,-4.25245 c 0,-0.50552 0.89006,-1.28779 1.9779,-1.73839 1.08784,-0.4506 2.26652,-1.16704 2.61927,-1.59209 0.90019,-1.08465 1.66811,-11.65767 1.11472,-15.34791 -0.42695,-2.84711 -0.602,-3.06917 -2.4194,-3.06917 -2.49681,0 -2.48417,-0.99294 0.0409,-3.20861 1.96118,-1.7209 1.9998,-1.87825 1.98979,-8.1065 -0.006,-3.49335 -0.27791,-6.77442 -0.6051,-7.29126 -0.8792,-1.38885 -4.16277,0.15306 -5.63562,2.6464 -1.30115,2.20268 -2.41574,2.04413 -2.41574,-0.34363 0,-2.03532 3.89033,-5.44527 7.15561,-6.27204 4.02649,-1.0195 9.93059,-2.08273 18.57571,-3.34517 5.52191,-0.80635 8.80476,-1.63508 10.41202,-2.62842 3.05721,-1.88946 4.07471,-1.87512 3.49336,0.0492 -1.38638,4.58909 -7.4678,7.3534 -15.46169,7.0281 -6.5529,-0.26666 -6.84168,0.0773 -6.84168,8.14887 0,5.41277 0.18415,6.58437 1.0895,6.93178 1.42057,0.54513 5.53431,-0.23192 7.29705,-1.37834 0.76261,-0.49596 1.58761,-0.7007 1.83334,-0.45497 1.19487,1.19486 -0.13494,10.22455 -1.50578,10.22455 -0.26884,0 -0.9018,-0.7717 -1.40658,-1.71488 -0.80661,-1.50716 -1.20322,-1.66134 -3.27424,-1.27281 -1.29606,0.24314 -2.58375,0.58254 -2.86154,0.75423 -0.59586,0.36826 -0.53653,12.3385 0.0755,15.23347 0.2472,1.16928 1.04515,2.27335 1.92112,2.65809 0.82407,0.36195 1.4983,0.83706 1.4983,1.05582 0,0.62896 -13.72626,3.95276 -16.32368,3.95276 -1.54658,0 -2.34299,-0.31242 -2.34299,-0.91912 z m 11.15142,-30.41421 c 0.93229,-0.73334 1.4296,-1.32667 1.10516,-1.31851 -0.77747,0.0195 -4.08978,2.61779 -3.36173,2.63701 0.30883,0.008 1.32429,-0.58518 2.25657,-1.3185 z m -1.15142,-1.66667 c 0.45646,-0.55 0.5682,-1.00998 0.2483,-1.02218 -0.3199,-0.0122 0.12661,-0.6122 0.99223,-1.33333 1.91635,-1.59649 1.3377,-1.72077 -0.97043,-0.20842 -1.27033,0.83235 -1.4689,1.23851 -0.80988,1.65646 0.65608,0.41608 0.58311,0.55626 -0.29355,0.56393 -0.64167,0.006 -1.16667,0.31021 -1.16667,0.67687 0,0.98486 1.05144,0.80962 2,-0.33333 z m 2.66667,-1.66667 c 0,-0.36666 -0.13229,-0.66666 -0.29399,-0.66666 -0.16169,0 -0.4794,0.3 -0.70601,0.66666 -0.22661,0.36667 -0.0943,0.66667 0.29399,0.66667 0.3883,0 0.70601,-0.3 0.70601,-0.66667 z m -3.09921,-2.82718 c -0.23929,-0.38718 0.14783,-0.47477 0.95962,-0.21712 0.78547,0.2493 1.57158,0.0907 1.85952,-0.3752 0.3433,-0.55548 0.15227,-0.67411 -0.61278,-0.38053 -1.03281,0.39633 -1.03457,0.29806 -0.0247,-1.38671 0.78627,-1.31179 0.32596,-1.03682 -1.66445,0.99426 -2.76851,2.82509 -3.96219,5.49498 -1.43368,3.20671 0.72469,-0.65583 1.13712,-1.48447 0.91651,-1.84141 z m 3.09921,-6.28342 c 0,-0.21229 -0.4026,-0.0519 -0.89467,0.35652 -0.49207,0.40838 -1.08482,0.55237 -1.31723,0.31996 -0.55808,-0.55808 -2.35693,0.96938 -3.19461,2.71263 -0.648,1.34852 -0.63764,1.35147 0.36284,0.10349 0.56644,-0.70656 1.23115,-1.0834 1.47714,-0.83742 0.24598,0.24599 -0.10334,1.12409 -0.77628,1.95134 -0.67293,0.82724 0.0289,0.21605 1.55965,-1.35822 1.53074,-1.57427 2.78316,-3.036 2.78316,-3.2483 z m 59.20833,40.65519 c 0.48125,-0.19258 1.05625,-0.16889 1.27778,0.0526 0.22153,0.22152 -0.17222,0.37909 -0.875,0.35014 -0.77663,-0.032 -0.9346,-0.18996 -0.40278,-0.40278 z m -157.97646,-5.51923 c -3.45305,-1.8772 -5.32316,-5.2499 -5.73147,-10.33659 -0.48707,-6.06782 0.18114,-8.63124 3.03067,-11.62642 4.74058,-4.98289 13.04928,-5.89947 18.05721,-1.99198 6.89359,5.3788 5.97023,17.21644 -1.77906,22.80778 -3.73079,2.69188 -9.79364,3.20415 -13.57735,1.14721 z m 10.15275,-4.64074 c 1.71294,-1.71296 1.94694,-2.41872 1.93407,-5.83334 -0.0172,-4.56657 -1.77143,-8.94356 -4.23005,-10.55451 -2.3523,-1.54128 -3.89286,-1.0511 -5.25427,1.67185 -2.33038,4.66099 -0.77381,12.99719 2.90849,15.57638 2.08028,1.45708 2.37981,1.40156 4.64176,-0.86038 z m 15.78205,4.5072 c -1.77618,-0.64872 -1.83477,-0.82895 -1.87922,-5.78072 -0.26878,-29.93935 -0.1505,-28.08381 -1.87302,-29.38319 l -1.58556,-1.19606 2.9189,-0.51964 c 1.60539,-0.2858 4.4189,-0.55546 6.25223,-0.59925 l 3.33333,-0.0796 -0.25869,17.16665 c -0.15883,10.54043 -0.015,17.16668 0.37258,17.16668 0.3472,0 1.21361,0.43044 1.92536,0.95652 1.23325,0.91156 1.17756,1.00558 -1.1845,2 -2.78574,1.17279 -5.314,1.25746 -8.02141,0.26863 z m 2.83333,-14.55849 c 0,-0.36667 -0.13229,-0.66667 -0.29399,-0.66667 -0.16169,0 -0.4794,0.3 -0.70601,0.66667 -0.22661,0.36666 -0.0943,0.66666 0.29399,0.66666 0.3883,0 0.70601,-0.3 0.70601,-0.66666 z m 0.18876,-2.19698 c 0.20392,-0.5314 -0.21748,-0.88997 -1.09534,-0.93206 -0.78471,-0.0376 -1.04988,0.0766 -0.58927,0.25392 0.46062,0.17728 0.66792,0.59671 0.46066,0.93206 -0.20726,0.33535 -0.0912,0.60972 0.25785,0.60972 0.34908,0 0.78382,-0.38864 0.9661,-0.86364 z m 2.14215,-9.32389 c 0.26029,-4.05006 0.24278,-4.1018 -0.75786,-2.24057 -0.56336,1.04787 -0.87574,2.47328 -0.69418,3.16758 0.18157,0.69431 0.0581,1.09425 -0.27438,0.88877 -0.33247,-0.20547 -0.60449,-0.0809 -0.60449,0.27686 0,0.35775 0.34302,0.7648 0.76227,0.90455 0.57191,0.19063 0.57191,0.60977 0,1.67838 -0.41925,0.78337 -0.75026,1.81903 -0.73558,2.30147 0.0789,2.59346 2.0782,-3.46025 2.30422,-6.97704 z m -2.66614,5.52683 c 0.23171,-0.73005 0.2461,-1.61082 0.032,-1.95729 -0.21413,-0.34646 -0.0652,-1.92414 0.33092,-3.50596 0.39614,-1.58182 0.75197,-3.25104 0.79073,-3.70937 0.0388,-0.45833 0.43859,-0.83333 0.88849,-0.83333 0.62879,0 0.65412,-0.64566 0.10948,-2.79136 l -0.70852,-2.79137 -1.1827,2.6247 c -0.65049,1.44358 -1.35855,3.46196 -1.57347,4.48529 -0.21492,1.02333 -0.62769,1.71417 -0.91726,1.53521 -0.28957,-0.17896 -0.37583,0.63377 -0.19169,1.80607 l 0.33481,2.13146 0.82666,-2.66667 c 0.87757,-2.83089 1.20371,-1.87288 0.52229,1.5342 -0.27369,1.36848 -0.70952,1.91806 -1.33171,1.6793 -0.65727,-0.25222 -0.88443,0.13389 -0.78507,1.33439 0.0769,0.92912 0.38106,1.54021 0.67593,1.35797 0.29486,-0.18223 0.33486,-0.65696 0.0889,-1.05494 -0.26692,-0.43189 -0.13693,-0.53184 0.32245,-0.24792 0.42332,0.26162 0.76968,0.10797 0.76968,-0.34144 0,-0.44941 0.1743,-0.64281 0.38734,-0.42977 0.21304,0.21304 0.0525,1.01303 -0.35679,1.77777 -0.4431,0.82795 -0.48313,1.39043 -0.0989,1.39043 0.35485,0 0.83477,-0.59732 1.06648,-1.32737 z m 0.35565,-11.00595 c 0,-0.36667 0.29081,-1.11667 0.64625,-1.66667 0.35543,-0.55 0.64625,-0.7 0.64625,-0.33333 0,0.36666 -0.29082,1.11666 -0.64625,1.66666 -0.35544,0.55 -0.64625,0.7 -0.64625,0.33334 z m -0.0204,-4.11904 c 0,-0.11787 -0.3,-0.2143 -0.66667,-0.2143 -0.36666,0 -0.66666,0.50734 -0.66666,1.12742 0,1.05226 -0.0556,1.05145 -0.83334,-0.0122 -0.73121,-0.99999 -0.82312,-0.89306 -0.75,0.87258 0.14988,3.61914 0.28768,3.70986 1.6099,1.05986 0.71872,-1.4405 1.30677,-2.7155 1.30677,-2.83336 z m 14.03389,35.28407 c -1.52679,-0.77356 -2.47775,-1.83707 -2.83007,-3.16503 -0.29185,-1.10001 -0.54276,-8.19811 -0.55758,-15.77356 -0.025,-12.75409 -0.12592,-13.89935 -1.36406,-15.47338 l -1.3371,-1.69985 3.68632,-1.07164 c 2.02747,-0.58941 4.51483,-0.97638 5.52746,-0.85994 l 1.84114,0.2117 -0.25458,16.51702 c -0.23331,15.137 -0.15505,16.62701 0.93666,17.83334 0.65518,0.72397 1.74474,1.31631 2.42125,1.31631 1.55706,0 1.5939,1.09853 0.0633,1.88879 -2.59496,1.33983 -5.81752,1.44929 -8.13278,0.27624 z m 1.29944,-14.83171 c 0.39247,-0.73333 0.56358,-1.33333 0.38025,-1.33333 -0.18333,0 -0.65445,0.6 -1.04691,1.33333 -0.39247,0.73333 -0.56358,1.33333 -0.38025,1.33333 0.18333,0 0.65445,-0.6 1.04691,-1.33333 z m 1.03538,-3.07867 c 0.4286,0.16447 0.73388,-0.76559 0.76266,-2.32354 0.0264,-1.42879 -0.21736,-2.59778 -0.54169,-2.59778 -0.32432,0 -0.58968,0.28668 -0.58968,0.63706 0,0.35038 -0.73372,1.71825 -1.6305,3.03972 -0.89677,1.32147 -1.45215,2.86742 -1.23418,3.43544 0.31441,0.81935 0.61561,0.67135 1.45751,-0.71619 0.58367,-0.96193 1.38281,-1.62555 1.77588,-1.47471 z m -3.03538,1.63887 c 0,-0.16564 0.75,-1.31773 1.66667,-2.5602 0.91667,-1.24247 1.66667,-1.91621 1.66667,-1.4972 0,0.41901 -0.75,1.5711 -1.66667,2.5602 -0.91667,0.9891 -1.66667,1.66284 -1.66667,1.4972 z m 2.80419,-9.14241 c 1.63954,-4.96978 1.06545,-5.06534 -0.73675,-0.12263 -0.80091,2.19656 -1.74372,4.17144 -2.09515,4.38863 -0.35142,0.2172 -0.63895,0.89395 -0.63895,1.50389 0,1.84556 2.12256,-1.68296 3.47085,-5.76989 z m -1.15154,-1.2943 c 0.63242,-1.94876 1.00533,-3.68773 0.82867,-3.86438 -0.17665,-0.17666 -0.52783,0.50213 -0.78039,1.50842 -0.3593,1.43156 -0.59206,1.61961 -1.06986,0.86438 -0.68505,-1.08283 -0.76268,-0.81482 -0.92968,3.2097 -0.14384,3.46646 0.43375,2.95789 1.95126,-1.71812 z m 2.1361,1.75152 c -0.21282,-0.53182 -0.37079,-0.37385 -0.40278,0.40278 -0.029,0.70278 0.12862,1.09653 0.35014,0.875 0.22153,-0.22153 0.24522,-0.79653 0.0526,-1.27778 z m -2.24485,-7.375 c -0.15909,-0.275 0.003,-0.5 0.3612,-0.5 0.35775,0 0.80296,0.3075 0.98935,0.68333 0.18639,0.37584 0.26153,0.30084 0.16698,-0.16666 -0.0946,-0.4675 -0.67206,-0.947 -1.28334,-1.06555 -0.8646,-0.16769 -1.10101,0.27646 -1.06456,2 0.0381,1.80045 0.14735,1.96574 0.58324,0.88221 0.29502,-0.73333 0.40623,-1.55833 0.24713,-1.83333 z m -1.74857,-2.32065 c -0.16903,-0.64864 -0.31844,-0.27935 -0.33203,0.82065 -0.0136,1.1 0.12471,1.63071 0.30733,1.17935 0.18261,-0.45135 0.19373,-1.35135 0.0247,-2 z m 74.87134,33.90228 c 0,-0.32177 0.45187,-0.96006 1.00416,-1.41841 0.94952,-0.78804 1.03672,-4.67181 0.39856,-17.75214 -0.0402,-0.82478 -0.62951,-1.56872 -1.40272,-1.77091 -0.73333,-0.19177 -1.33333,-0.64424 -1.33333,-1.00549 0,-0.76742 1.60905,-1.20338 6.66666,-1.80627 l 3.66667,-0.43708 v 10.31286 c 0,10.19426 0.0192,10.32847 1.66667,11.66923 l 1.66666,1.35634 -1.87673,0.71845 c -2.2469,0.86017 -10.4566,0.96491 -10.4566,0.13342 z m 17.35775,-0.19185 c -0.90324,-0.3403 -1.7563,-0.73277 -1.89569,-0.87217 -0.1394,-0.13939 -0.51021,-7.36 -0.82404,-16.04579 -0.47656,-13.18963 -0.75172,-15.99247 -1.66962,-17.00673 -1.44817,-1.60022 -0.72265,-2.62075 1.90428,-2.67861 1.17003,-0.0258 2.72253,-0.27933 3.45001,-0.56346 3.34812,-1.30766 3.36798,-1.20879 3.35555,16.70516 l -0.0116,16.68713 1.60672,1.3023 c 0.92782,0.75202 1.35035,1.53604 1,1.85551 -0.99723,0.9093 -5.15486,1.28003 -6.91564,0.61666 z m 0.43758,-34.37709 c -0.16903,-0.64865 -0.31844,-0.27936 -0.33203,0.82064 -0.0136,1.1 0.12471,1.63071 0.30732,1.17936 0.18262,-0.45136 0.19374,-1.35136 0.0247,-2 z m 12.11669,34.18488 c -2.29854,-1.29822 -2.6973,-4.04714 -2.69239,-18.56029 0.003,-7.80448 -0.28574,-12.24453 -0.93402,-14.38054 -0.51581,-1.69954 -0.94109,-3.16507 -0.94506,-3.25674 -0.004,-0.0917 0.81976,-0.16667 1.83052,-0.16667 1.01075,0 2.82794,-0.28399 4.0382,-0.63108 3.43124,-0.98407 4.31335,-0.32425 3.86722,2.89266 -1.45434,10.48688 -1.87245,24.38526 -0.87783,29.1799 0.4021,1.93839 0.94031,2.59274 2.61182,3.17543 1.53106,0.53373 1.90533,0.93395 1.37208,1.4672 -1.206,1.206 -6.32431,1.37936 -8.27054,0.28013 z m 2.28115,-22.36424 c 0.19177,-0.73333 0.0768,-1.33333 -0.25558,-1.33333 -0.33234,0 -0.60426,0.6 -0.60426,1.33333 0,0.73334 0.11501,1.33334 0.25558,1.33334 0.14057,0 0.41249,-0.6 0.60426,-1.33334 z m -2.40443,-0.79166 c -0.21281,-0.53183 -0.37079,-0.37385 -0.40278,0.40277 -0.0289,0.70278 0.12862,1.09653 0.35015,0.875 0.22153,-0.22152 0.24521,-0.79652 0.0526,-1.27777 z m 2.60659,-6.51185 c -0.0264,-1.6664 0.16199,-3.92982 0.41858,-5.02982 0.25658,-1.1 0.30279,-1.62313 0.10269,-1.16251 -0.2001,0.46061 -0.63475,0.67003 -0.9659,0.46537 -0.33115,-0.20466 -0.46577,0.0185 -0.29915,0.49585 0.16662,0.47737 0.0184,1.91796 -0.32939,3.20129 l -0.63233,2.33333 0.29324,-2.5826 c 0.33453,-2.9462 -0.082,-2.89244 -0.94662,0.12218 -0.36806,1.28335 -0.34525,2.13527 0.0608,2.27062 0.35743,0.11914 0.67658,1.15557 0.7092,2.30316 0.0448,1.57567 0.25245,1.90615 0.84807,1.34975 0.43381,-0.40524 0.76717,-2.10022 0.74081,-3.76662 z m -2.62048,1.13685 c -0.18494,-0.45834 -0.33625,-0.0833 -0.33625,0.83333 0,0.91667 0.15131,1.29167 0.33625,0.83333 0.18495,-0.45833 0.18495,-1.20833 0,-1.66666 z m 12.74406,27.36445 c -3.40518,-1.97394 -4.80472,-5.12143 -4.83094,-10.86446 -0.0277,-6.07394 1.35876,-8.95424 5.24445,-10.89484 3.41946,-1.70776 5.74555,-1.81203 8.73866,-0.39171 2.51031,1.19122 4.01585,4.12029 3.39312,6.60145 -0.43327,1.72628 -4.15464,4.00235 -9.23087,5.64579 -1.375,0.44515 -2.5,0.89134 -2.5,0.99153 0,1.59435 1.90234,4.64111 3.37251,5.40137 2.53486,1.31082 3.45182,1.23869 5.58513,-0.43938 1.23553,-0.97186 2.02012,-1.20312 2.48947,-0.73378 2.02328,2.02329 -3.10149,6.16892 -7.58721,6.1376 -1.20628,-0.008 -3.30972,-0.66253 -4.67432,-1.45357 z m 5.31442,-14.52382 c 2.35282,-1.43454 2.91529,-3.88942 1.21456,-5.30089 -0.74283,-0.6165 -1.40224,-0.55741 -3,0.26882 -1.12634,0.58245 -2.04789,1.3138 -2.04789,1.62521 0,0.31142 -0.1875,1.50372 -0.41667,2.64955 -0.34824,1.74121 -0.21139,2.08292 0.83334,2.08084 0.6875,-0.001 2.225,-0.59696 3.41666,-1.32353 z m -45.0033,-13.44435 c -2.20625,-2.20626 0.22627,-6.17382 3.54375,-5.78003 2.63073,0.31228 3.55351,2.09484 2.27207,4.38906 -1.13583,2.03353 -4.394,2.81278 -5.81582,1.39097 z"
       id="path1" />
    <rect
       style="fill:#f9f9f9;stroke-width:2.53566"
       id="rect1602"
       width="4.1669154"
       height="3.8614657"
       x="500.63889"
       y="241.35297"
       ry="1.9307328" />
  </g>
</svg>
